<mxfile host="app.diagrams.net" modified="2023-07-19T07:02:38.819Z" agent="Mozilla/5.0 (Windows NT 10.0; Win64; x64) AppleWebKit/537.36 (KHTML, like Gecko) Chrome/114.0.0.0 Safari/537.36" version="21.6.3" etag="AQ9KGMggCGWglFkvbYrm" type="github">
  <diagram name="Trang-1" id="MUuh4lRQbgaYMnVtU2Yt">
    <mxGraphModel>
      <root>
        <mxCell id="0" />
        <mxCell id="1" parent="0" />
      </root>
    </mxGraphModel>
  </diagram>
</mxfile>
